<?xml version="1.0" encoding="UTF-8" standalone="no"?>
<svg
   xmlns:dc="http://purl.org/dc/elements/1.1/"
   xmlns:cc="http://creativecommons.org/ns#"
   xmlns:rdf="http://www.w3.org/1999/02/22-rdf-syntax-ns#"
   xmlns:svg="http://www.w3.org/2000/svg"
   xmlns="http://www.w3.org/2000/svg"
   xmlns:sodipodi="http://sodipodi.sourceforge.net/DTD/sodipodi-0.dtd"
   xmlns:inkscape="http://www.inkscape.org/namespaces/inkscape"
   version="1.1"
   id="Layer_1"
   x="0px"
   y="0px"
   viewBox="0 0 297 297"
   style="enable-background:new 0 0 297 297;"
   xml:space="preserve"
   sodipodi:docname="delete.svg"
   inkscape:version="1.0 (4035a4fb49, 2020-05-01)"><metadata
   id="metadata53"><rdf:RDF><cc:Work
       rdf:about=""><dc:format>image/svg+xml</dc:format><dc:type
         rdf:resource="http://purl.org/dc/dcmitype/StillImage" /><dc:title /></cc:Work></rdf:RDF></metadata><defs
   id="defs51" /><sodipodi:namedview
   inkscape:document-rotation="0"
   pagecolor="#ffffff"
   bordercolor="#666666"
   borderopacity="1"
   objecttolerance="10"
   gridtolerance="10"
   guidetolerance="10"
   inkscape:pageopacity="0"
   inkscape:pageshadow="2"
   inkscape:window-width="1920"
   inkscape:window-height="1002"
   id="namedview49"
   showgrid="false"
   inkscape:zoom="2.8282828"
   inkscape:cx="80.4375"
   inkscape:cy="148.5"
   inkscape:window-x="-8"
   inkscape:window-y="-8"
   inkscape:window-maximized="1"
   inkscape:current-layer="Layer_1" />
<g
   id="g16"
   style="fill:#c5c5c5;fill-opacity:1">
	<g
   id="g14"
   style="fill:#c5c5c5;fill-opacity:1">
		<g
   id="g12"
   style="fill:#c5c5c5;fill-opacity:1">
			<path
   d="M216.979,150.445c-24.601,0-44.615,20.014-44.615,44.615s20.014,44.615,44.615,44.615     c24.6,0,44.615-20.014,44.615-44.615S241.58,150.445,216.979,150.445z M238.868,207.41c2.633,2.634,2.633,6.904,0,9.539     c-1.317,1.316-3.044,1.975-4.769,1.975c-1.725,0-3.452-0.659-4.769-1.975l-12.35-12.35l-12.35,12.35     c-1.317,1.316-3.044,1.975-4.769,1.975s-3.452-0.659-4.769-1.975c-2.633-2.634-2.633-6.904,0-9.539l12.35-12.35l-12.352-12.35     c-2.633-2.634-2.633-6.904,0-9.539c2.634-2.632,6.904-2.632,9.539,0l12.35,12.35l12.35-12.35c2.634-2.632,6.904-2.632,9.539,0     c2.633,2.634,2.633,6.904,0,9.539l-12.35,12.35L238.868,207.41z"
   id="path2"
   style="fill:#c5c5c5;fill-opacity:1" />
			<path
   d="M227.354,59.832L227.354,59.832c-0.001-10.822-8.806-19.626-19.628-19.626H55.033c-10.822,0-19.626,8.804-19.626,19.626     v18.244h191.948V59.832z"
   id="path4"
   style="fill:#c5c5c5;fill-opacity:1" />
			<path
   d="M216.979,136.957c1.233,0,2.454,0.052,3.668,0.128l2.716-45.521h-47.368v62.351     C186.51,143.442,200.999,136.957,216.979,136.957z"
   id="path6"
   style="fill:#c5c5c5;fill-opacity:1" />
			<path
   d="M103.885,13.488h54.99v13.229h13.488V6.744c0-3.725-3.019-6.744-6.744-6.744H97.14c-3.725,0-6.744,3.019-6.744,6.744     v19.973h13.488V13.488z"
   id="path8"
   style="fill:#c5c5c5;fill-opacity:1" />
			<path
   d="M175.994,273.748c0,5.393-4.372,9.764-9.764,9.764c-5.393,0-9.764-4.371-9.764-9.764V91.564h-50.173v182.184     c0,5.393-4.372,9.764-9.764,9.764c-5.393,0-9.764-4.371-9.764-9.764V91.564H39.398l11.881,199.094     C51.492,294.22,54.442,297,58.01,297h146.739c3.569,0,6.519-2.78,6.732-6.342l2.243-37.591     c-14.686-0.815-27.934-7.104-37.73-16.862V273.748z"
   id="path10"
   style="fill:#c5c5c5;fill-opacity:1" />
		</g>
	</g>
</g>
<g
   id="g18">
</g>
<g
   id="g20">
</g>
<g
   id="g22">
</g>
<g
   id="g24">
</g>
<g
   id="g26">
</g>
<g
   id="g28">
</g>
<g
   id="g30">
</g>
<g
   id="g32">
</g>
<g
   id="g34">
</g>
<g
   id="g36">
</g>
<g
   id="g38">
</g>
<g
   id="g40">
</g>
<g
   id="g42">
</g>
<g
   id="g44">
</g>
<g
   id="g46">
</g>
</svg>
